<?xml version="1.0" encoding="UTF-8" standalone="no"?>
<svg
   xmlns:dc="http://purl.org/dc/elements/1.1/"
   xmlns:cc="http://creativecommons.org/ns#"
   xmlns:rdf="http://www.w3.org/1999/02/22-rdf-syntax-ns#"
   xmlns:svg="http://www.w3.org/2000/svg"
   xmlns="http://www.w3.org/2000/svg"
   xmlns:sodipodi="http://sodipodi.sourceforge.net/DTD/sodipodi-0.dtd"
   xmlns:inkscape="http://www.inkscape.org/namespaces/inkscape"
   enable-background="new 0 0 512 512"
   height="512px"
   id="Layer_1"
   version="1.1"
   viewBox="0 0 512 512"
   width="512px"
   xml:space="preserve"
   inkscape:version="0.91 r13725"
   sodipodi:docname="info.svg"><metadata
     id="metadata15"><rdf:RDF><cc:Work
         rdf:about=""><dc:format>image/svg+xml</dc:format><dc:type
           rdf:resource="http://purl.org/dc/dcmitype/StillImage" /></cc:Work></rdf:RDF></metadata><defs
     id="defs13" /><sodipodi:namedview
     pagecolor="#ffffff"
     bordercolor="#666666"
     borderopacity="1"
     objecttolerance="10"
     gridtolerance="10"
     guidetolerance="10"
     inkscape:pageopacity="0"
     inkscape:pageshadow="2"
     inkscape:window-width="914"
     inkscape:window-height="480"
     id="namedview11"
     showgrid="false"
     inkscape:zoom="0.4609375"
     inkscape:cx="256"
     inkscape:cy="256"
     inkscape:window-x="481"
     inkscape:window-y="248"
     inkscape:window-maximized="0"
     inkscape:current-layer="g3" /><g
     id="g3"><path
       d="M257.338,166.245c16.297,0,29.52-13.223,29.52-29.52c0-16.317-13.223-29.501-29.52-29.501   c-16.298,0-29.52,13.185-29.52,29.501C227.818,153.022,241.04,166.245,257.338,166.245z"
       fill="#37404D"
       id="path5"
       style="fill:#7b7b7b;fill-opacity:1" /><polygon
       fill="#37404D"
       points="277.383,205.605 277.383,195.265 277.383,185.925 218.343,185.925 218.343,205.605    238.023,205.605 238.023,372.885 218.343,372.885 218.343,392.565 297.063,392.565 297.063,372.885 277.383,372.885  "
       id="polygon7"
       style="fill:#7b7b7b;fill-opacity:1" /><path
       d="M256.108,9.65c-135.857,0-246,110.143-246,246c0,135.877,110.143,246,246,246   c135.857,0,246-110.123,246-246C502.108,119.793,391.966,9.65,256.108,9.65z M256.108,481.97   c-124.797,0-226.32-101.533-226.32-226.32S131.312,29.33,256.108,29.33c124.797,0,226.32,101.533,226.32,226.32   S380.905,481.97,256.108,481.97z"
       fill="#37404D"
       id="path9"
       style="fill:#7b7b7b;fill-opacity:1" /></g></svg>